<?xml version="1.0" encoding="UTF-8" standalone="no" ?>
<!DOCTYPE svg PUBLIC "-//W3C//DTD SVG 1.1//EN" "http://www.w3.org/Graphics/SVG/1.1/DTD/svg11.dtd">
<svg xmlns="http://www.w3.org/2000/svg" xmlns:xlink="http://www.w3.org/1999/xlink" version="1.1" width="1080" height="1080" viewBox="0 0 1080 1080" xml:space="preserve">
<desc>Created with Fabric.js 5.2.4</desc>
<defs>
</defs>
<g transform="matrix(1 0 0 1 540 540)" id="321046f6-8a6f-4e3d-bd13-8b02693c9d23"  >
</g>
<g transform="matrix(1 0 0 1 540 540)" id="e5548da3-89b8-4fbf-8e6c-832bbc686c51"  >
<rect style="stroke: none; stroke-width: 1; stroke-dasharray: none; stroke-linecap: butt; stroke-dashoffset: 0; stroke-linejoin: miter; stroke-miterlimit: 4; fill: rgb(255,255,255); fill-rule: nonzero; opacity: 1; visibility: hidden;" vector-effect="non-scaling-stroke"  x="-540" y="-540" rx="0" ry="0" width="1080" height="1080" />
</g>
<g transform="matrix(7.71 0 0 7.71 539.7 539.7)"  >
<g style=""   >
		<g transform="matrix(1 0 0 1 25.42 -42.62)" clip-path="url(#CLIPPATH_7)"  >
<clipPath id="CLIPPATH_7" >
	<rect transform="matrix(1 0 0 1 -25.42 42.62)" id="clip0_109_2" x="-70" y="-70" rx="0" ry="0" width="140" height="140" />
</clipPath>
<path style="stroke: none; stroke-width: 1; stroke-dasharray: none; stroke-linecap: butt; stroke-dashoffset: 0; stroke-linejoin: miter; stroke-miterlimit: 4; fill: rgb(59,130,246); fill-rule: nonzero; opacity: 1;" vector-effect="non-scaling-stroke"  transform=" translate(-95.42, -27.38)" d="M 73.281 27.8306 C 86.4101 32.1364 97.9918 39.8229 107.062 49.8358 C 108.556 48.4981 110.328 47.7137 112.235 47.7137 C 112.795 47.7137 113.342 47.7948 113.874 47.9235 C 117.232 38.5521 118.425 28.4563 116.891 18.1913 C 116.883 18.1278 116.865 18.0679 116.856 18.0044 C 110.728 12.4806 103.62 8.02847 95.8221 4.92993 C 87.4959 11.1111 79.8447 18.8117 73.281 27.8306 Z" stroke-linecap="round" />
</g>
		<g transform="matrix(1 0 0 1 -6.36 -56.99)" clip-path="url(#CLIPPATH_8)"  >
<clipPath id="CLIPPATH_8" >
	<rect transform="matrix(1 0 0 1 6.35 56.99)" id="clip0_109_2" x="-70" y="-70" rx="0" ry="0" width="140" height="140" />
</clipPath>
<path style="stroke: none; stroke-width: 1; stroke-dasharray: none; stroke-linecap: butt; stroke-dashoffset: 0; stroke-linejoin: miter; stroke-miterlimit: 4; fill: rgb(59,130,246); fill-rule: nonzero; opacity: 1;" vector-effect="non-scaling-stroke"  transform=" translate(-63.65, -13.01)" d="M 41.536 24.2966 C 43.9365 24.071 46.3583 23.9141 48.8188 23.9141 C 55.0546 23.9141 61.1124 24.6544 66.9253 26.0291 C 73.6441 16.8851 81.4891 9.11055 90.0128 2.91876 C 83.6729 1.0258 76.9559 0 69.9992 0 C 61.8933 0 54.1152 1.39417 46.8747 3.92869 C 42.9848 9.19515 39.7699 14.9798 37.283 21.1381 C 39.1178 21.7779 40.6159 22.8689 41.536 24.2966 Z" stroke-linecap="round" />
</g>
		<g transform="matrix(1 0 0 1 -23.01 -11.04)" clip-path="url(#CLIPPATH_9)"  >
<clipPath id="CLIPPATH_9" >
	<rect transform="matrix(1 0 0 1 23.01 11.04)" id="clip0_109_2" x="-70" y="-70" rx="0" ry="0" width="140" height="140" />
</clipPath>
<path style="stroke: none; stroke-width: 1; stroke-dasharray: none; stroke-linecap: butt; stroke-dashoffset: 0; stroke-linejoin: miter; stroke-miterlimit: 4; fill: rgb(59,130,246); fill-rule: nonzero; opacity: 1;" vector-effect="non-scaling-stroke"  transform=" translate(-46.99, -58.96)" d="M 33.7579 36.5251 C 33.43 36.6026 33.104 36.6661 32.7797 36.7189 C 32.0006 41.1358 31.5706 45.6726 31.5706 50.3134 C 31.5706 63.6787 34.9687 76.2332 40.8873 87.2297 C 42.1634 87.064 43.4888 87.064 44.8284 87.2121 C 45.5404 73.4061 48.9809 59.1031 55.4794 45.2884 C 57.5609 40.8609 59.891 36.652 62.4185 32.6528 C 56.7942 31.3714 50.9391 30.6946 44.9235 30.6946 C 43.8466 30.6946 42.7838 30.7563 41.7175 30.8039 C 40.3762 33.4212 37.468 35.642 33.7579 36.5251 Z" stroke-linecap="round" />
</g>
		<g transform="matrix(1 0 0 1 7.47 -5.37)" clip-path="url(#CLIPPATH_10)"  >
<clipPath id="CLIPPATH_10" >
	<rect transform="matrix(1 0 0 1 -7.47 5.37)" id="clip0_109_2" x="-70" y="-70" rx="0" ry="0" width="140" height="140" />
</clipPath>
<path style="stroke: none; stroke-width: 1; stroke-dasharray: none; stroke-linecap: butt; stroke-dashoffset: 0; stroke-linejoin: miter; stroke-miterlimit: 4; fill: rgb(59,130,246); fill-rule: nonzero; opacity: 1;" vector-effect="non-scaling-stroke"  transform=" translate(-77.47, -64.63)" d="M 68.8253 34.4312 C 66.4001 38.3087 64.1546 42.3802 62.1435 46.6579 C 55.5305 60.7159 52.0953 75.2744 51.4731 89.3042 C 54.0376 90.6983 56.1033 92.6283 57.5539 94.8297 C 76.6704 90.7583 92.7694 80.4351 103.466 66.7314 C 102.918 65.0394 102.606 63.1658 102.606 61.1882 C 102.606 59.5861 102.818 58.0544 103.182 56.6303 C 93.9785 46.4675 82.1924 38.7035 68.8253 34.4312 Z" stroke-linecap="round" />
</g>
		<g transform="matrix(1 0 0 1 -52.94 -4.99)" clip-path="url(#CLIPPATH_11)"  >
<clipPath id="CLIPPATH_11" >
	<rect transform="matrix(1 0 0 1 52.94 4.99)" id="clip0_109_2" x="-70" y="-70" rx="0" ry="0" width="140" height="140" />
</clipPath>
<path style="stroke: none; stroke-width: 1; stroke-dasharray: none; stroke-linecap: butt; stroke-dashoffset: 0; stroke-linejoin: miter; stroke-miterlimit: 4; fill: rgb(59,130,246); fill-rule: nonzero; opacity: 1;" vector-effect="non-scaling-stroke"  transform=" translate(-17.06, -65.01)" d="M 30.3033 94.738 C 31.1317 92.7781 32.4642 91.1636 34.1139 89.921 C 28.227 78.9421 24.8641 66.407 24.8641 53.0769 C 24.8641 47.324 25.5515 41.7403 26.7412 36.3452 C 25.1778 35.8411 23.8453 35.0162 22.883 33.9358 C 17.0702 35.6349 11.5252 37.9579 6.35218 40.8731 C 2.28601 49.744 0 59.6036 0 70.0008 C 0 75.9758 0.752603 81.7728 2.16087 87.3071 C 10.4836 91.821 19.8691 94.8455 29.8344 96.0793 C 29.9631 95.6281 30.1165 95.1804 30.3033 94.738 Z" stroke-linecap="round" />
</g>
		<g transform="matrix(1 0 0 1 20.76 30.98)" clip-path="url(#CLIPPATH_12)"  >
<clipPath id="CLIPPATH_12" >
	<rect transform="matrix(1 0 0 1 -20.76 -30.97)" id="clip0_109_2" x="-70" y="-70" rx="0" ry="0" width="140" height="140" />
</clipPath>
<path style="stroke: none; stroke-width: 1; stroke-dasharray: none; stroke-linecap: butt; stroke-dashoffset: 0; stroke-linejoin: miter; stroke-miterlimit: 4; fill: rgb(59,130,246); fill-rule: nonzero; opacity: 1;" vector-effect="non-scaling-stroke"  transform=" translate(-90.76, -100.97)" d="M 112.235 74.6592 C 110.851 74.6592 109.536 74.245 108.348 73.5083 C 97.2673 87.9858 80.2007 98.7936 59.9015 102.574 C 59.8698 104.028 59.5896 105.479 59.0026 106.87 C 58.7118 107.555 58.347 108.19 57.9434 108.794 C 71.4532 120.769 89.1173 128.143 108.521 128.439 C 114.059 124.782 119.043 120.358 123.326 115.321 C 123.478 113.35 123.584 111.366 123.584 109.355 C 123.584 96.6381 120.503 84.6634 115.138 74.0371 C 114.221 74.4389 113.246 74.6592 112.235 74.6592 Z" stroke-linecap="round" />
</g>
		<g transform="matrix(1 0 0 1 8.6 56.64)" clip-path="url(#CLIPPATH_13)"  >
<clipPath id="CLIPPATH_13" >
	<rect transform="matrix(1 0 0 1 -8.6 -56.63)" id="clip0_109_2" x="-70" y="-70" rx="0" ry="0" width="140" height="140" />
</clipPath>
<path style="stroke: none; stroke-width: 1; stroke-dasharray: none; stroke-linecap: butt; stroke-dashoffset: 0; stroke-linejoin: miter; stroke-miterlimit: 4; fill: rgb(59,130,246); fill-rule: nonzero; opacity: 1;" vector-effect="non-scaling-stroke"  transform=" translate(-78.6, -126.63)" d="M 53.2286 113.268 C 55.171 122.836 58.5762 131.772 63.328 139.674 C 65.5259 139.88 67.7484 140 70.0009 140 C 82.3316 140 93.908 136.801 103.97 131.205 C 103.651 131.208 103.339 131.235 103.022 131.235 C 84.0871 131.233 66.7491 124.474 53.2286 113.268 Z" stroke-linecap="round" />
</g>
		<g transform="matrix(1 0 0 1 -39.59 45.89)" clip-path="url(#CLIPPATH_14)"  >
<clipPath id="CLIPPATH_14" >
	<rect transform="matrix(1 0 0 1 39.58 -45.9)" id="clip0_109_2" x="-70" y="-70" rx="0" ry="0" width="140" height="140" />
</clipPath>
<path style="stroke: none; stroke-width: 1; stroke-dasharray: none; stroke-linecap: butt; stroke-dashoffset: 0; stroke-linejoin: miter; stroke-miterlimit: 4; fill: rgb(59,130,246); fill-rule: nonzero; opacity: 1;" vector-effect="non-scaling-stroke"  transform=" translate(-30.42, -115.9)" d="M 39.4596 113.097 C 34.5193 111.01 31.0682 107.032 29.8609 102.687 C 20.4595 100.985 11.6609 97.671 3.89343 93.0232 C 12.0275 116.379 32.1786 134.097 56.9422 138.772 C 52.4795 131.475 49.1994 123.265 47.1531 114.489 C 44.6521 114.611 42.0153 114.177 39.4596 113.097 Z" stroke-linecap="round" />
</g>
		<g transform="matrix(1 0 0 1 -45.01 -49.52)" clip-path="url(#CLIPPATH_15)"  >
<clipPath id="CLIPPATH_15" >
	<rect transform="matrix(1 0 0 1 45.02 49.51)" id="clip0_109_2" x="-70" y="-70" rx="0" ry="0" width="140" height="140" />
</clipPath>
<path style="stroke: none; stroke-width: 1; stroke-dasharray: none; stroke-linecap: butt; stroke-dashoffset: 0; stroke-linejoin: miter; stroke-miterlimit: 4; fill: rgb(59,130,246); fill-rule: nonzero; opacity: 1;" vector-effect="non-scaling-stroke"  transform=" translate(-24.98, -20.49)" d="M 30.0319 20.8772 C 30.6893 20.7203 31.3432 20.6181 31.9883 20.5547 C 34.2532 15.6319 36.9939 10.9753 40.1841 6.66235 C 27.4991 12.6444 16.9063 22.3207 9.78564 34.3095 C 13.4552 32.2068 17.317 30.409 21.325 28.9091 C 21.8167 25.3505 25.266 22.0123 30.0319 20.8772 Z" stroke-linecap="round" />
</g>
		<g transform="matrix(1 0 0 1 59.69 -3.87)" clip-path="url(#CLIPPATH_16)"  >
<clipPath id="CLIPPATH_16" >
	<rect transform="matrix(1 0 0 1 -59.68 3.86)" id="clip0_109_2" x="-70" y="-70" rx="0" ry="0" width="140" height="140" />
</clipPath>
<path style="stroke: none; stroke-width: 1; stroke-dasharray: none; stroke-linecap: butt; stroke-dashoffset: 0; stroke-linejoin: miter; stroke-miterlimit: 4; fill: rgb(59,130,246); fill-rule: nonzero; opacity: 1;" vector-effect="non-scaling-stroke"  transform=" translate(-129.68, -66.14)" d="M 140 70.0008 C 140 51.2932 132.647 34.313 120.691 21.7549 C 120.954 22.9869 121.185 24.233 121.374 25.495 C 122.74 34.6461 121.936 43.665 119.368 52.1569 C 120.914 54.5469 121.865 57.7089 121.865 61.1881 C 121.865 64.1685 121.166 66.9146 119.993 69.146 C 124.772 79.2946 127.475 90.6136 127.475 102.576 C 127.475 105.259 127.326 107.904 127.063 110.52 C 135.197 99.0809 140 85.1057 140 70.0008 Z" stroke-linecap="round" />
</g>
		<g transform="matrix(1 0 0 1 -25.35 30.81)" clip-path="url(#CLIPPATH_17)"  >
<clipPath id="CLIPPATH_17" >
	<rect transform="matrix(1 0 0 1 25.35 -30.81)" id="clip0_109_2" x="-70" y="-70" rx="0" ry="0" width="140" height="140" />
</clipPath>
<path style="stroke: none; stroke-width: 1; stroke-dasharray: none; stroke-linecap: butt; stroke-dashoffset: 0; stroke-linejoin: miter; stroke-miterlimit: 4; fill: rgb(59,130,246); fill-rule: nonzero; opacity: 1;" vector-effect="non-scaling-stroke"  transform=" translate(-44.65, -100.81)" d="M 41.9405 107.218 C 46.0731 108.965 50.636 107.512 52.1321 103.973 C 53.6282 100.434 51.491 96.1491 47.3584 94.4021 C 43.2259 92.655 38.663 94.1077 37.1669 97.6466 C 35.6708 101.186 37.808 105.471 41.9405 107.218 Z" stroke-linecap="round" />
</g>
		<g transform="matrix(1 0 0 1 42.24 -8.81)" clip-path="url(#CLIPPATH_18)"  >
<clipPath id="CLIPPATH_18" >
	<rect transform="matrix(1 0 0 1 -42.23 8.81)" id="clip0_109_2" x="-70" y="-70" rx="0" ry="0" width="140" height="140" />
</clipPath>
<path style="stroke: none; stroke-width: 1; stroke-dasharray: none; stroke-linecap: butt; stroke-dashoffset: 0; stroke-linejoin: miter; stroke-miterlimit: 4; fill: rgb(59,130,246); fill-rule: nonzero; opacity: 1;" vector-effect="non-scaling-stroke"  transform=" translate(-112.23, -61.19)" d="M 112.235 66.8952 C 114.487 66.8952 116.313 64.3393 116.313 61.1864 C 116.313 58.0335 114.487 55.4775 112.235 55.4775 C 109.982 55.4775 108.156 58.0335 108.156 61.1864 C 108.156 64.3393 109.982 66.8952 112.235 66.8952 Z" stroke-linecap="round" />
</g>
		<g transform="matrix(1 0 0 1 -38.11 -41.3)" clip-path="url(#CLIPPATH_19)"  >
<clipPath id="CLIPPATH_19" >
	<rect transform="matrix(1 0 0 1 38.11 41.3)" id="clip0_109_2" x="-70" y="-70" rx="0" ry="0" width="140" height="140" />
</clipPath>
<path style="stroke: none; stroke-width: 1; stroke-dasharray: none; stroke-linecap: butt; stroke-dashoffset: 0; stroke-linejoin: miter; stroke-miterlimit: 4; fill: rgb(59,130,246); fill-rule: nonzero; opacity: 1;" vector-effect="non-scaling-stroke"  transform=" translate(-31.89, -28.7)" d="M 32.6862 32.0288 C 35.1461 31.4423 36.7849 29.4763 36.3465 27.6375 C 35.9081 25.7987 33.5586 24.7835 31.0987 25.37 C 28.6388 25.9565 27 27.9225 27.4384 29.7613 C 27.8768 31.6001 30.2263 32.6153 32.6862 32.0288 Z" stroke-linecap="round" />
</g>
</g>
</g>
<g transform="matrix(NaN NaN NaN NaN 0 0)"  >
<g style=""   >
</g>
</g>
</svg>